<svg width="41" height="40" viewBox="0 0 41 40" fill="none" xmlns="http://www.w3.org/2000/svg">
<g id="Figma" clip-path="url(#clip0_794_121)">
<path id="Vector" d="M13.9332 40.0003C17.6132 40.0003 20.5998 37.0137 20.5998 33.3337V26.667H13.9332C10.2532 26.667 7.26651 29.6537 7.26651 33.3337C7.26651 37.0137 10.2532 40.0003 13.9332 40.0003Z" fill="#292929"/>
<path id="Vector_2" d="M7.26651 19.9997C7.26651 16.3197 10.2532 13.333 13.9332 13.333H20.5998V26.6663H13.9332C10.2532 26.6663 7.26651 23.6797 7.26651 19.9997Z" fill="#292929"/>
<path id="Vector_3" d="M7.26651 6.66667C7.26651 2.98667 10.2532 0 13.9332 0H20.5998V13.3333H13.9332C10.2532 13.3333 7.26651 10.3467 7.26651 6.66667Z" fill="#292929"/>
<path id="Vector_4" d="M20.5999 0H27.2665C30.9465 0 33.9332 2.98667 33.9332 6.66667C33.9332 10.3467 30.9465 13.3333 27.2665 13.3333H20.5999V0Z" fill="#292929"/>
<path id="Vector_5" d="M33.9332 19.9997C33.9332 23.6797 30.9465 26.6663 27.2665 26.6663C23.5865 26.6663 20.5999 23.6797 20.5999 19.9997C20.5999 16.3197 23.5865 13.333 27.2665 13.333C30.9465 13.333 33.9332 16.3197 33.9332 19.9997Z" fill="#292929"/>
</g>
<defs>
<clipPath id="clip0_794_121">
<rect width="40" height="40" fill="white" transform="translate(0.600006)"/>
</clipPath>
</defs>
</svg>
