<svg width="41" height="40" viewBox="0 0 41 40" fill="none" xmlns="http://www.w3.org/2000/svg">
<g id="linkedin">
<path id="Vector" d="M36.3916 1.00535C30.5472 0.98895 8.99081 1.01655 4.00841 1.00535C2.45801 1.00535 1.20001 2.22495 1.20001 3.72695V36.2794C1.20001 37.7817 2.45801 39.0001 4.00841 39.0001H36.3916C37.9428 39.0001 39.2 37.7817 39.2 36.2789V3.72695C39.2 2.22495 37.9428 1.00535 36.3916 1.00535Z" fill="#292929"/>
<path id="Vector_2" d="M21.5812 32.802C21.5812 32.802 21.5812 23.2508 21.5812 23.2504C21.5256 21.4952 22.5748 19.8572 24.686 19.7836C26.7432 19.7836 27.5664 21.352 27.5664 23.6516V32.8016H33.252V22.994C33.252 17.74 30.4472 15.2952 26.706 15.2952C23.6388 15.2952 22.2916 17.0092 21.5432 18.1768L21.5812 15.6968H15.8956C15.9696 17.3016 15.8952 32.802 15.8952 32.802H21.5812ZM12.748 25.3844V15.6964H7.06162V32.8016H12.7484C12.7472 31.0056 12.7504 27.1552 12.748 25.3844ZM9.90602 13.3616C11.8884 13.3616 13.1228 12.048 13.1228 10.4068C13.1064 6.44797 6.72122 6.49197 6.72642 10.4064C6.72202 12.0604 7.99042 13.382 9.90602 13.3616Z" fill="white"/>
</g>
</svg>
