<svg width="40" height="40" viewBox="0 0 40 40" fill="none" xmlns="http://www.w3.org/2000/svg">
<g id="Medium Logo" clip-path="url(#clip0_794_138)">
<path id="Vector" d="M21.25 20C21.25 25.8586 16.7641 30.625 11.25 30.625C5.73594 30.625 1.25 25.8586 1.25 20C1.25 14.1414 5.73594 9.375 11.25 9.375C16.7641 9.375 21.25 14.1414 21.25 20ZM28.75 10C27.8621 10 26.1876 10.4314 24.9494 13.3205C24.1759 15.1251 23.75 17.4974 23.75 20C23.75 22.5026 24.1759 24.8749 24.9494 26.6795C26.1876 29.5686 27.8621 30 28.75 30C29.6379 30 31.3124 29.5686 32.5506 26.6795C33.3241 24.8749 33.75 22.5026 33.75 20C33.75 17.4974 33.3241 15.1251 32.5506 13.3205C31.3124 10.4314 29.6379 10 28.75 10ZM37.5 10C37.1685 10 36.8506 10.1317 36.6161 10.3661C36.3817 10.6006 36.25 10.9185 36.25 11.25V28.75C36.25 29.0815 36.3817 29.3995 36.6161 29.6339C36.8505 29.8683 37.1685 30 37.5 30C37.8315 30 38.1495 29.8683 38.3839 29.6339C38.6183 29.3995 38.75 29.0815 38.75 28.75V11.25C38.75 10.9185 38.6183 10.6006 38.3839 10.3661C38.1494 10.1317 37.8315 10 37.5 10Z" fill="black"/>
</g>
<defs>
<clipPath id="clip0_794_138">
<rect width="40" height="40" fill="white"/>
</clipPath>
</defs>
</svg>
