<svg width="41" height="40" viewBox="0 0 41 40" fill="none" xmlns="http://www.w3.org/2000/svg">
<g id="telegram">
<path id="Vector" d="M20.3906 3.33301C17.0942 3.33301 13.8719 4.31049 11.131 6.14185C8.39023 7.9732 6.25402 10.5762 4.99256 13.6216C3.7311 16.6671 3.40104 20.0182 4.04413 23.2512C4.68722 26.4842 6.27456 29.4539 8.60544 31.7848C10.9363 34.1157 13.906 35.703 17.139 36.3461C20.3721 36.9892 23.7232 36.6591 26.7686 35.3977C29.814 34.1362 32.417 32 34.2484 29.2592C36.0797 26.5184 37.0572 23.296 37.0572 19.9997C37.0574 17.8109 36.6264 15.6436 35.7889 13.6214C34.9514 11.5992 33.7237 9.76184 32.1761 8.21416C30.6284 6.66648 28.791 5.43883 26.7688 4.60131C24.7466 3.7638 22.5793 3.33283 20.3906 3.33301ZM25.6897 28.5871C25.6273 28.7427 25.5324 28.8831 25.4113 28.999C25.2903 29.1148 25.1458 29.2035 24.9877 29.259C24.8295 29.3144 24.6613 29.3355 24.4944 29.3206C24.3275 29.3058 24.1656 29.2554 24.0197 29.173L19.4953 25.6573L16.5914 28.3363C16.524 28.3861 16.4452 28.4182 16.3622 28.4295C16.2792 28.4408 16.1947 28.4311 16.1164 28.4012L16.6731 23.4205L16.6909 23.4346L16.7023 23.3363C16.7023 23.3363 24.844 15.9238 25.1756 15.6079C25.5114 15.2929 25.4006 15.2246 25.4006 15.2246C25.4197 14.8404 24.7981 15.2246 24.7981 15.2246L14.0106 22.1647L9.51807 20.6347C9.51807 20.6347 8.82807 20.3872 8.76307 19.843C8.69473 19.303 9.54055 19.0097 9.54055 19.0097L27.4022 11.9138C27.4022 11.9138 28.8706 11.2596 28.8706 12.343L25.6897 28.5871Z" fill="black"/>
</g>
</svg>
