<svg width="41" height="40" viewBox="0 0 41 40" fill="none" xmlns="http://www.w3.org/2000/svg">
<g id="twitter">
<path id="Vector" d="M39.3684 8.44863C38.0016 9.05583 36.5332 9.46423 34.992 9.64863C36.566 8.70583 37.7728 7.21343 38.3412 5.43383C36.87 6.30663 35.2392 6.94063 33.502 7.28343C32.1124 5.80223 30.1328 4.87663 27.9416 4.87663C23.0984 4.81183 19.3748 9.54343 20.5208 14.2306C14.1892 13.9134 8.57599 10.8798 4.81679 6.26903C2.76519 9.61463 3.92999 14.399 7.17519 16.4414C5.92679 16.4014 4.75119 16.0586 3.72439 15.4886C3.67679 19.2106 6.31719 22.353 9.83599 23.0542C8.75479 23.3558 7.50919 23.403 6.39519 23.1854C7.36519 26.2118 10.1788 28.4158 13.5124 28.477C10.4984 30.8854 6.27879 32.141 2.23199 31.6322C18.5048 41.647 36.494 28.5262 35.5652 12.3918C37.0544 11.3166 38.3472 9.97543 39.3684 8.44863Z" fill="#292929"/>
</g>
</svg>
